<svg xmlns="http://www.w3.org/2000/svg" width="256" height="256" viewBox="0 0 100 100"><rect width="100" height="100" rx="20" fill="#20201c"></rect><path d="M46.31 18.81L64.13 18.81L73.94 18.36Q76.73 18.36 77.05 19.49Q77.36 20.61 77.36 21.15L77.36 21.15Q77.36 24.30 75.16 29.12Q72.95 33.93 72.00 33.93Q71.06 33.93 71.06 33.21L71.06 33.21L71.78 27.81Q71.78 25.02 69.53 23.40Q67.28 21.78 64.13 21.78Q60.98 21.78 59.45 22.23Q57.92 22.68 57.02 24.12L57.02 24.12Q50.45 33.93 45.05 46.44L45.05 46.44L68.54 46.44L68.63 46.53Q68.63 47.16 67.37 49.01Q66.11 50.85 65.30 50.85L65.30 50.85L43.07 50.85Q40.64 56.79 38.30 64.17Q35.96 71.55 35.96 73.94Q35.96 76.32 37.40 77.45Q38.84 78.57 42.26 78.57L42.26 78.57Q68.54 78.57 73.40 68.31L73.40 68.31Q73.58 68.04 74.08 68.04Q74.57 68.04 74.57 68.58Q74.57 69.12 74.39 70.02L74.39 70.02Q71.87 77.85 66.92 79.92L66.92 79.92Q64.31 81.00 62.02 81.32Q59.72 81.63 56.12 81.63L56.12 81.63L28.94 81.63Q26.15 81.63 26.15 77.40L26.15 77.40Q26.15 70.11 34.16 50.85L34.16 50.85L29.21 50.85Q28.49 50.85 28.49 50.40L28.49 50.40Q28.49 49.50 30.20 47.97Q31.91 46.44 32.99 46.44L32.99 46.44L36.05 46.44Q44.33 26.55 48.02 22.23L48.02 22.23Q39.56 23.31 32.59 25.83Q25.61 28.35 23.45 32.04L23.45 32.04Q23.36 32.31 23.00 32.31Q22.64 32.31 22.64 31.82Q22.64 31.32 22.73 31.14L22.73 31.14Q26.15 21.78 35.24 19.71L35.24 19.71Q39.38 18.81 46.31 18.81L46.31 18.81Z" fill="#faa916"></path></svg>