<svg id="Layer_1" data-name="Layer 1" xmlns="http://www.w3.org/2000/svg" xmlns:xlink="http://www.w3.org/1999/xlink" viewBox="0 0 24 24"><defs><style>.cls-1{fill:url(#linear-gradient);}</style><linearGradient id="linear-gradient" x1="1.99979" y1="11.99976" x2="22.0002" y2="11.99976" gradientUnits="userSpaceOnUse"><stop offset="0" stop-color="#ffb300" id="id_102"></stop><stop offset="1" stop-color="#ffe600" id="id_103"></stop></linearGradient></defs><title>star</title><path class="cls-1" d="M18.96338,14.55762a.8583.8583,0,0,0-.24707.75879l.51318,2.99023a2.85675,2.85675,0,0,1-4.146,3.01074l-2.68457-1.41113a.85517.85517,0,0,0-.79834.001L8.9165,21.31738a2.85675,2.85675,0,0,1-4.146-3.01074l.5127-2.99023a.85665.85665,0,0,0-.24658-.75879L2.86475,12.44043a2.857,2.857,0,0,1,1.5835-4.873l3.002-.43555a.86125.86125,0,0,0,.64551-.46973L9.4375,3.94238a2.8577,2.8577,0,0,1,5.125,0l1.34229,2.71973a.85961.85961,0,0,0,.645.46973l3.00146.43555a2.85661,2.85661,0,0,1,1.5835,4.873Z" id="id_101"></path></svg>